<mxfile host="app.diagrams.net" modified="2023-10-12T02:20:57.446Z" agent="Mozilla/5.0 (Windows NT 10.0; Win64; x64; rv:109.0) Gecko/20100101 Firefox/118.0" version="22.0.4" etag="2s9xyiMlWbaTtOT_TGd1" type="github">
  <diagram name="Halaman-1" id="Bn8lFy2fjqE0jCent-Uw">
    <mxGraphModel>
      <root>
        <mxCell id="0" />
        <mxCell id="1" parent="0" />
      </root>
    </mxGraphModel>
  </diagram>
</mxfile>
